<mxfile host="www.draw.io" modified="2019-11-17T17:46:21.534Z" agent="Mozilla/5.0 (Windows NT 10.0; Win64; x64) AppleWebKit/537.36 (KHTML, like Gecko) Chrome/78.0.3904.97 Safari/537.36" etag="Iu6hQcDJrCWdlzIprOxJ" version="12.2.6" type="github" pages="1">
  <diagram id="xiOXI4lFDrCh-hyMLODH" name="Page-1">
    <mxGraphModel dx="854" dy="429" grid="1" gridSize="10" guides="1" tooltips="1" connect="1" arrows="1" fold="1" page="1" pageScale="1" pageWidth="850" pageHeight="1100" math="0" shadow="0">
      <root>
        <mxCell id="0"/>
        <mxCell id="1" parent="0"/>
        <mxCell id="jg0jDLXCW8hjl37ol6xC-1" value="DB" style="shape=cylinder;whiteSpace=wrap;html=1;boundedLbl=1;backgroundOutline=1;" vertex="1" parent="1">
          <mxGeometry x="50" y="930" width="60" height="80" as="geometry"/>
        </mxCell>
        <mxCell id="jg0jDLXCW8hjl37ol6xC-2" value="Module A / Component A" style="rounded=0;whiteSpace=wrap;html=1;fillColor=#FFE599;" vertex="1" parent="1">
          <mxGeometry x="40" y="650" width="120" height="125" as="geometry"/>
        </mxCell>
        <mxCell id="jg0jDLXCW8hjl37ol6xC-3" value="Module B / Component B" style="rounded=0;whiteSpace=wrap;html=1;fillColor=#E1D5E7;" vertex="1" parent="1">
          <mxGeometry x="210" y="650" width="120" height="125" as="geometry"/>
        </mxCell>
        <mxCell id="jg0jDLXCW8hjl37ol6xC-4" value="Module C / Component C" style="rounded=0;whiteSpace=wrap;html=1;fillColor=#9AC7BF;" vertex="1" parent="1">
          <mxGeometry x="370" y="650" width="120" height="125" as="geometry"/>
        </mxCell>
        <mxCell id="jg0jDLXCW8hjl37ol6xC-5" value="Web API" style="rounded=0;whiteSpace=wrap;html=1;" vertex="1" parent="1">
          <mxGeometry x="40" y="870" width="450" height="35" as="geometry"/>
        </mxCell>
        <mxCell id="jg0jDLXCW8hjl37ol6xC-9" value="Front End Core(Angular/ReactJS)" style="rounded=0;whiteSpace=wrap;html=1;fillColor=#f5f5f5;strokeColor=#666666;fontColor=#333333;" vertex="1" parent="1">
          <mxGeometry x="40" y="800" width="450" height="45" as="geometry"/>
        </mxCell>
        <mxCell id="jg0jDLXCW8hjl37ol6xC-10" value="Production Build A" style="rounded=0;whiteSpace=wrap;html=1;fillColor=#FFE599;" vertex="1" parent="1">
          <mxGeometry x="40" y="480" width="120" height="60" as="geometry"/>
        </mxCell>
        <mxCell id="jg0jDLXCW8hjl37ol6xC-12" value="Production Build B" style="rounded=0;whiteSpace=wrap;html=1;fillColor=#E1D5E7;" vertex="1" parent="1">
          <mxGeometry x="205" y="480" width="120" height="60" as="geometry"/>
        </mxCell>
        <mxCell id="jg0jDLXCW8hjl37ol6xC-13" value="Production Build C" style="rounded=0;whiteSpace=wrap;html=1;fillColor=#9AC7BF;" vertex="1" parent="1">
          <mxGeometry x="370" y="480" width="120" height="60" as="geometry"/>
        </mxCell>
        <mxCell id="jg0jDLXCW8hjl37ol6xC-61" value="" style="edgeStyle=orthogonalEdgeStyle;rounded=0;orthogonalLoop=1;jettySize=auto;html=1;" edge="1" parent="1" source="jg0jDLXCW8hjl37ol6xC-14" target="jg0jDLXCW8hjl37ol6xC-12">
          <mxGeometry relative="1" as="geometry"/>
        </mxCell>
        <mxCell id="jg0jDLXCW8hjl37ol6xC-14" value="Web Page" style="rounded=0;whiteSpace=wrap;html=1;fillColor=#FFCCCC;" vertex="1" parent="1">
          <mxGeometry x="40" y="350" width="450" height="95" as="geometry"/>
        </mxCell>
        <mxCell id="jg0jDLXCW8hjl37ol6xC-17" value="" style="endArrow=classic;startArrow=classic;html=1;exitX=0.133;exitY=0;exitDx=0;exitDy=0;exitPerimeter=0;" edge="1" parent="1" source="jg0jDLXCW8hjl37ol6xC-9">
          <mxGeometry width="50" height="50" relative="1" as="geometry">
            <mxPoint x="50" y="824" as="sourcePoint"/>
            <mxPoint x="100" y="774" as="targetPoint"/>
          </mxGeometry>
        </mxCell>
        <mxCell id="jg0jDLXCW8hjl37ol6xC-18" value="" style="endArrow=classic;startArrow=classic;html=1;exitX=0.133;exitY=0;exitDx=0;exitDy=0;exitPerimeter=0;" edge="1" parent="1">
          <mxGeometry width="50" height="50" relative="1" as="geometry">
            <mxPoint x="269.3499999999999" y="801" as="sourcePoint"/>
            <mxPoint x="269.5" y="775" as="targetPoint"/>
          </mxGeometry>
        </mxCell>
        <mxCell id="jg0jDLXCW8hjl37ol6xC-20" value="Web pack" style="rounded=0;whiteSpace=wrap;html=1;fillColor=#f5f5f5;strokeColor=#666666;fontColor=#333333;" vertex="1" parent="1">
          <mxGeometry x="175" y="570" width="165" height="40" as="geometry"/>
        </mxCell>
        <mxCell id="jg0jDLXCW8hjl37ol6xC-21" value="" style="endArrow=classic;startArrow=classic;html=1;exitX=0.133;exitY=0;exitDx=0;exitDy=0;exitPerimeter=0;" edge="1" parent="1">
          <mxGeometry width="50" height="50" relative="1" as="geometry">
            <mxPoint x="419.8499999999999" y="801" as="sourcePoint"/>
            <mxPoint x="420" y="775" as="targetPoint"/>
          </mxGeometry>
        </mxCell>
        <mxCell id="jg0jDLXCW8hjl37ol6xC-22" value="" style="endArrow=classic;html=1;entryX=0.25;entryY=1;entryDx=0;entryDy=0;" edge="1" parent="1" target="jg0jDLXCW8hjl37ol6xC-20">
          <mxGeometry width="50" height="50" relative="1" as="geometry">
            <mxPoint x="125" y="650" as="sourcePoint"/>
            <mxPoint x="175" y="600" as="targetPoint"/>
          </mxGeometry>
        </mxCell>
        <mxCell id="jg0jDLXCW8hjl37ol6xC-23" value="" style="endArrow=classic;html=1;" edge="1" parent="1" target="jg0jDLXCW8hjl37ol6xC-20">
          <mxGeometry width="50" height="50" relative="1" as="geometry">
            <mxPoint x="400" y="650" as="sourcePoint"/>
            <mxPoint x="491.25" y="610" as="targetPoint"/>
          </mxGeometry>
        </mxCell>
        <mxCell id="jg0jDLXCW8hjl37ol6xC-28" value="" style="endArrow=classic;html=1;" edge="1" parent="1">
          <mxGeometry width="50" height="50" relative="1" as="geometry">
            <mxPoint x="264" y="570" as="sourcePoint"/>
            <mxPoint x="264" y="540" as="targetPoint"/>
          </mxGeometry>
        </mxCell>
        <mxCell id="jg0jDLXCW8hjl37ol6xC-30" value="" style="endArrow=classic;html=1;exitX=0.442;exitY=0.016;exitDx=0;exitDy=0;exitPerimeter=0;" edge="1" parent="1" source="jg0jDLXCW8hjl37ol6xC-3">
          <mxGeometry width="50" height="50" relative="1" as="geometry">
            <mxPoint x="264" y="640" as="sourcePoint"/>
            <mxPoint x="264" y="610" as="targetPoint"/>
          </mxGeometry>
        </mxCell>
        <mxCell id="jg0jDLXCW8hjl37ol6xC-31" value="" style="endArrow=classic;html=1;exitX=0.133;exitY=-0.05;exitDx=0;exitDy=0;exitPerimeter=0;" edge="1" parent="1" source="jg0jDLXCW8hjl37ol6xC-20">
          <mxGeometry width="50" height="50" relative="1" as="geometry">
            <mxPoint x="220" y="580" as="sourcePoint"/>
            <mxPoint x="125" y="540" as="targetPoint"/>
          </mxGeometry>
        </mxCell>
        <mxCell id="jg0jDLXCW8hjl37ol6xC-32" value="" style="endArrow=classic;html=1;exitX=0.897;exitY=-0.05;exitDx=0;exitDy=0;exitPerimeter=0;entryX=0.25;entryY=1;entryDx=0;entryDy=0;" edge="1" parent="1" source="jg0jDLXCW8hjl37ol6xC-20" target="jg0jDLXCW8hjl37ol6xC-13">
          <mxGeometry width="50" height="50" relative="1" as="geometry">
            <mxPoint x="429.94499999999994" y="578" as="sourcePoint"/>
            <mxPoint x="358" y="550" as="targetPoint"/>
          </mxGeometry>
        </mxCell>
        <mxCell id="jg0jDLXCW8hjl37ol6xC-38" value="" style="endArrow=classic;startArrow=classic;html=1;exitX=0.133;exitY=0;exitDx=0;exitDy=0;exitPerimeter=0;" edge="1" parent="1">
          <mxGeometry width="50" height="50" relative="1" as="geometry">
            <mxPoint x="269.3499999999999" y="871" as="sourcePoint"/>
            <mxPoint x="269.5" y="845" as="targetPoint"/>
          </mxGeometry>
        </mxCell>
        <mxCell id="jg0jDLXCW8hjl37ol6xC-39" value="" style="endArrow=classic;html=1;" edge="1" parent="1">
          <mxGeometry width="50" height="50" relative="1" as="geometry">
            <mxPoint x="109.5" y="480" as="sourcePoint"/>
            <mxPoint x="109.5" y="450" as="targetPoint"/>
          </mxGeometry>
        </mxCell>
        <mxCell id="jg0jDLXCW8hjl37ol6xC-40" value="" style="endArrow=classic;html=1;" edge="1" parent="1">
          <mxGeometry width="50" height="50" relative="1" as="geometry">
            <mxPoint x="269.5" y="480" as="sourcePoint"/>
            <mxPoint x="270" y="450" as="targetPoint"/>
          </mxGeometry>
        </mxCell>
        <mxCell id="jg0jDLXCW8hjl37ol6xC-41" value="" style="endArrow=classic;html=1;" edge="1" parent="1">
          <mxGeometry width="50" height="50" relative="1" as="geometry">
            <mxPoint x="430" y="476" as="sourcePoint"/>
            <mxPoint x="430" y="446" as="targetPoint"/>
          </mxGeometry>
        </mxCell>
        <mxCell id="jg0jDLXCW8hjl37ol6xC-44" value="" style="endArrow=classic;startArrow=classic;html=1;exitX=0.133;exitY=0;exitDx=0;exitDy=0;exitPerimeter=0;" edge="1" parent="1">
          <mxGeometry width="50" height="50" relative="1" as="geometry">
            <mxPoint x="79.34999999999991" y="930" as="sourcePoint"/>
            <mxPoint x="79.5" y="904" as="targetPoint"/>
          </mxGeometry>
        </mxCell>
        <mxCell id="jg0jDLXCW8hjl37ol6xC-47" value="DB" style="shape=cylinder;whiteSpace=wrap;html=1;boundedLbl=1;backgroundOutline=1;" vertex="1" parent="1">
          <mxGeometry x="240" y="930" width="60" height="80" as="geometry"/>
        </mxCell>
        <mxCell id="jg0jDLXCW8hjl37ol6xC-48" value="DB" style="shape=cylinder;whiteSpace=wrap;html=1;boundedLbl=1;backgroundOutline=1;" vertex="1" parent="1">
          <mxGeometry x="400" y="930" width="60" height="80" as="geometry"/>
        </mxCell>
        <mxCell id="jg0jDLXCW8hjl37ol6xC-52" value="" style="endArrow=classic;startArrow=classic;html=1;exitX=0.133;exitY=0;exitDx=0;exitDy=0;exitPerimeter=0;" edge="1" parent="1">
          <mxGeometry width="50" height="50" relative="1" as="geometry">
            <mxPoint x="269.3499999999999" y="931" as="sourcePoint"/>
            <mxPoint x="269.5" y="905" as="targetPoint"/>
          </mxGeometry>
        </mxCell>
        <mxCell id="jg0jDLXCW8hjl37ol6xC-53" value="" style="endArrow=classic;startArrow=classic;html=1;exitX=0.133;exitY=0;exitDx=0;exitDy=0;exitPerimeter=0;" edge="1" parent="1">
          <mxGeometry width="50" height="50" relative="1" as="geometry">
            <mxPoint x="429.8499999999999" y="930" as="sourcePoint"/>
            <mxPoint x="430" y="904" as="targetPoint"/>
          </mxGeometry>
        </mxCell>
        <mxCell id="jg0jDLXCW8hjl37ol6xC-58" value="&lt;font style=&quot;font-size: 27px&quot;&gt;Micro Front-End Architecure&lt;/font&gt;" style="text;html=1;resizable=0;points=[];autosize=1;align=left;verticalAlign=top;spacingTop=-4;strokeWidth=8;" vertex="1" parent="1">
          <mxGeometry x="250" y="250" width="350" height="20" as="geometry"/>
        </mxCell>
        <mxCell id="jg0jDLXCW8hjl37ol6xC-63" value="Create&lt;br&gt;Git Project Lib" style="rounded=0;whiteSpace=wrap;html=1;fillColor=#f5f5f5;strokeColor=#666666;fontColor=#333333;" vertex="1" parent="1">
          <mxGeometry x="530" y="680" width="120" height="65" as="geometry"/>
        </mxCell>
        <mxCell id="jg0jDLXCW8hjl37ol6xC-64" value="" style="endArrow=none;dashed=1;html=1;" edge="1" parent="1">
          <mxGeometry width="50" height="50" relative="1" as="geometry">
            <mxPoint x="490" y="720" as="sourcePoint"/>
            <mxPoint x="528" y="721" as="targetPoint"/>
          </mxGeometry>
        </mxCell>
      </root>
    </mxGraphModel>
  </diagram>
</mxfile>
